<svg width="24" height="24" viewBox="0 0 24 24" fill="none" xmlns="http://www.w3.org/2000/svg">
<path fill-rule="evenodd" clip-rule="evenodd" d="M12 22.2858C6.31936 22.2858 1.71429 17.6807 1.71429 12.0001C1.71429 6.31943 6.31936 1.71436 12 1.71436C17.6806 1.71436 22.2857 6.31943 22.2857 12.0001C22.2857 17.6807 17.6806 22.2858 12 22.2858ZM13.7143 13.7144H17.1429C18.0896 13.7144 18.8571 12.9468 18.8571 12.0001C18.8571 11.0533 18.0896 10.2858 17.1429 10.2858H13.7143V6.85721C13.7143 5.91044 12.9468 5.14293 12 5.14293C11.0532 5.14293 10.2857 5.91044 10.2857 6.85721V10.2858H6.85714C5.91037 10.2858 5.14286 11.0533 5.14286 12.0001C5.14286 12.9468 5.91037 13.7144 6.85714 13.7144H10.2857V17.1429C10.2857 18.0897 11.0532 18.8572 12 18.8572C12.9468 18.8572 13.7143 18.0897 13.7143 17.1429V13.7144Z" fill="white"/>
</svg>
