<?xml version="1.0" encoding="utf-8"?>
<!-- Svg Vector Icons : http://www.onlinewebfonts.com/icon -->
<!DOCTYPE svg PUBLIC "-//W3C//DTD SVG 1.1//EN" "http://www.w3.org/Graphics/SVG/1.1/DTD/svg11.dtd">
<svg version="1.1" xmlns="http://www.w3.org/2000/svg" xmlns:xlink="http://www.w3.org/1999/xlink" x="0px" y="0px" viewBox="0 0 256 256" enable-background="new 0 0 256 256" xml:space="preserve">
<metadata> Svg Vector Icons : http://www.onlinewebfonts.com/icon </metadata>
<g><g><path fill="#000000" d="M128,246c-59.5,0-92.7-13.1-92.7-35.1c0-12.7,19.2-23.8,45.9-29.9l6.3,11c-22.7,4-37.3,10.9-37.3,18.9c0,12.3,37.5,20.3,77.8,20.3c40.3,0,77.8-7.9,77.8-20.3c0-8-14.6-15-37.3-18.9l6.3-11c26.6,6.2,45.9,17.3,45.9,29.9C220.7,232.4,185.6,246,128,246z M189.6,138.8c-2.2,2.3-53.3,61.9-53.3,61.9c-2.1,2.6-4.5,4.4-7,4.4c-2.6,0-4.5-2-6.4-4.4c0,0-57.7-63.1-58.7-64.4c-1-1.4-2.3-3.1-3.4-4.9c-7.6-12.2-12.6-26.2-12.6-41.6c0-44,35.8-79.7,79.9-79.7s79.9,35.7,79.9,79.7c0,15.9-4.7,30.7-12.8,43.1C192.9,135.7,190.8,137.6,189.6,138.8z M128,24.8c-36.1,0-65.5,29.3-65.5,65.3c0,11.9,3.9,22.6,9.9,31.3c2,3.1,8.1,10.4,8.1,10.4l49.2,54.8l44.9-53.3c0,0,2.4-2.8,5.2-6.9c7.2-10.5,13.6-21.9,13.6-36.3C193.5,54,164.2,24.8,128,24.8z M128,120.5c-17,0-30.8-13.8-30.8-30.8C97.2,72.7,111,59,128,59c17,0,30.8,13.8,30.8,30.8C158.8,106.7,145,120.5,128,120.5z M128,73.8c-8.8,0-16,7.2-16,15.9c0,8.8,7.2,15.9,16,15.9s16-7.2,16-15.9C144,80.9,136.8,73.8,128,73.8z"/></g></g>
</svg>